<?xml version="1.0" encoding="utf-8"?>
<!-- Generator: Adobe Illustrator 28.1.0, SVG Export Plug-In . SVG Version: 6.00 Build 0)  -->
<svg version="1.1" id="Camada_1" xmlns="http://www.w3.org/2000/svg" xmlns:xlink="http://www.w3.org/1999/xlink" x="0px" y="0px"
	 viewBox="0 0 24 24" style="enable-background:new 0 0 24 24;" xml:space="preserve">
<style type="text/css">
	.st0{fill:#B3B3B3;}
</style>
<path class="st0" d="M3,22c-0.6,0-1-0.4-1-1V3c0-0.6,0.4-1,1-1s1,0.4,1,1v18C4,21.6,3.6,22,3,22z M15.5,2.1C15,1.9,14.4,2,14.1,2.5
	C14,2.7,14,2.8,14,3v18c0,0.6,0.4,1,1,1h6c0.6,0,1-0.4,1-1V6.5c0-0.4-0.2-0.7-0.5-0.9L15.5,2.1z M9,2C8.4,2,8,2.4,8,3v18
	c0,0.6,0.4,1,1,1s1-0.4,1-1V3C10,2.4,9.6,2,9,2z"/>
</svg>
